<svg width="1607" height="662" viewBox="0 0 1607 662" fill="none" xmlns="http://www.w3.org/2000/svg">
<g filter="url(#filter0_d_161_98)">
<path d="M1581.94 20.9999V57.6768H1582C1573.91 57.6768 1566.15 60.891 1560.43 66.6124C1554.71 72.3337 1551.49 80.0936 1551.49 88.1848C1551.49 96.2761 1554.71 104.036 1560.43 109.757C1566.15 115.479 1573.91 118.693 1582 118.693V136.156C1573.91 136.156 1566.15 139.37 1560.43 145.091C1554.71 150.813 1551.49 158.573 1551.49 166.664C1551.49 174.755 1554.71 182.515 1560.43 188.236C1566.15 193.958 1573.91 197.172 1582 197.172V214.609C1573.91 214.609 1566.15 217.823 1560.43 223.544C1554.71 229.266 1551.49 237.026 1551.49 245.117C1551.49 253.208 1554.71 260.968 1560.43 266.689C1566.15 272.411 1573.91 275.625 1582 275.625V293.062C1573.91 293.062 1566.15 296.276 1560.43 301.998C1554.71 307.719 1551.49 315.479 1551.49 323.57C1551.49 331.661 1554.71 339.421 1560.43 345.143C1566.15 350.864 1573.91 354.078 1582 354.078V371.515C1573.91 371.515 1566.15 374.729 1560.43 380.451C1554.71 386.172 1551.49 393.932 1551.49 402.023C1551.49 410.115 1554.71 417.874 1560.43 423.596C1566.15 429.317 1573.91 432.531 1582 432.531V449.942C1573.91 449.942 1566.15 453.157 1560.43 458.878C1554.71 464.599 1551.49 472.359 1551.49 480.451C1551.49 488.542 1554.71 496.302 1560.43 502.023C1566.15 507.744 1573.91 510.959 1582 510.959V528.396C1573.91 528.396 1566.16 531.608 1560.44 537.327C1554.72 543.046 1551.5 550.803 1551.5 558.891C1551.5 566.979 1554.72 574.735 1560.44 580.454C1566.16 586.173 1573.91 589.386 1582 589.386V632.528H334.782H322.805H25V589.373C33.0878 589.373 40.8444 586.16 46.5634 580.441C52.2824 574.722 55.4952 566.966 55.4952 558.878C55.4952 550.79 52.2824 543.034 46.5634 537.315C40.8444 531.596 33.0878 528.383 25 528.383V510.946C33.0913 510.946 40.8511 507.732 46.5725 502.01C52.2939 496.289 55.5081 488.529 55.5081 480.438C55.5081 472.346 52.2939 464.587 46.5725 458.865C40.8511 453.144 33.0913 449.93 25 449.93V432.493C33.0913 432.493 40.8511 429.278 46.5725 423.557C52.2939 417.836 55.5081 410.076 55.5081 401.985C55.5081 393.893 52.2939 386.133 46.5725 380.412C40.8511 374.691 33.0913 371.476 25 371.476V354.04C33.0913 354.04 40.8511 350.825 46.5725 345.104C52.2939 339.382 55.5081 331.623 55.5081 323.531C55.5081 315.44 52.2939 307.68 46.5725 301.959C40.8511 296.238 33.0913 293.023 25 293.023V275.586C31.5917 275.592 38.0078 273.463 43.2873 269.516C48.5667 265.569 52.4252 260.018 54.2847 253.694C55.1278 250.904 55.5615 248.006 55.5725 245.091C55.5725 241.084 54.783 237.116 53.249 233.413C51.715 229.711 49.4666 226.347 46.6323 223.514C43.798 220.681 40.4333 218.434 36.7304 216.902C33.0275 215.369 29.059 214.581 25.0515 214.583V197.146C33.1428 197.146 40.9026 193.932 46.624 188.211C52.3454 182.489 55.5596 174.729 55.5596 166.638C55.5596 158.547 52.3454 150.787 46.624 145.066C40.9026 139.344 33.1428 136.13 25.0515 136.13V118.693C33.1428 118.693 40.9026 115.479 46.624 109.757C52.3454 104.036 55.5596 96.2761 55.5596 88.1848C55.5596 80.0936 52.3454 72.3337 46.624 66.6124C40.9026 60.891 33.1428 57.6768 25.0515 57.6768V20.9999L322.741 20.9999H334.717L1581.94 20.9999Z" fill="url(#paint0_linear_161_98)"/>
<text transform="translate(188.551 360.981)" fill="white" xml:space="preserve" style="white-space: pre" font-family="Inter" font-size="15" font-weight="bold" letter-spacing="0em"><tspan x="0" y="14.4545">FLIGHT NO.</tspan></text>
<text transform="translate(188.551 394.464)" fill="white" xml:space="preserve" style="white-space: pre" font-family="Inter" font-size="20" font-weight="500" letter-spacing="0em"><tspan x="0" y="19.2727">JY605</tspan></text>
<text transform="translate(514.366 360.981)" fill="white" xml:space="preserve" style="white-space: pre" font-family="Inter" font-size="15" font-weight="bold" letter-spacing="0em"><tspan x="0" y="14.4545">PASSENGER</tspan></text>
<text transform="translate(514.366 394.464)" fill="white" xml:space="preserve" style="white-space: pre" font-family="Inter" font-size="20" font-weight="500" letter-spacing="0em"><tspan x="0" y="19.2727">&#xc774;&#xc9c0;&#xc724; (LEE JIYOON)</tspan></text>
<text transform="translate(840.181 360.981)" fill="white" xml:space="preserve" style="white-space: pre" font-family="Inter" font-size="15" font-weight="bold" letter-spacing="0em"><tspan x="0" y="14.4545">GATE</tspan></text>
<text transform="translate(840.181 394.464)" fill="white" xml:space="preserve" style="white-space: pre" font-family="Inter" font-size="15" font-weight="500" letter-spacing="0em"><tspan x="0" y="14.4545">Here</tspan></text>
<g clip-path="url(#clip0_161_98)">
<path d="M670.835 247.42L649.8 247.256L649.734 247.375L628.03 284.595C627.518 285.37 626.831 286.014 626.024 286.473C625.217 286.933 624.313 287.196 623.385 287.241L618.113 287.2C617.743 287.226 617.373 287.158 617.036 287.003C616.699 286.847 616.407 286.61 616.187 286.312C615.966 286.014 615.824 285.665 615.774 285.298C615.724 284.93 615.767 284.556 615.9 284.21L624.888 253.922L624.946 247.062L606.818 246.921C604.853 246.794 602.915 246.398 601.058 245.744L596.357 254.39C595.87 255.174 595.199 255.828 594.402 256.296C593.606 256.764 592.708 257.03 591.785 257.073L590.17 257.065C589.351 257.056 588.569 256.723 587.995 256.139C587.42 255.556 587.099 254.768 587.103 253.949L587.173 244.384L587.183 244.209L587.231 236.968L587.232 236.784L587.311 227.228C587.321 226.409 587.653 225.627 588.237 225.052C588.821 224.477 589.608 224.157 590.427 224.16L592.046 224.173C592.967 224.232 593.86 224.515 594.647 224.997C595.435 225.478 596.093 226.144 596.566 226.936L601.141 235.645C603.009 235.021 604.953 234.656 606.919 234.558L625.047 234.7L625.091 227.844L616.577 197.42C616.45 197.071 616.412 196.697 616.468 196.33C616.524 195.964 616.671 195.617 616.896 195.323C617.122 195.028 617.417 194.795 617.756 194.645C618.095 194.495 618.467 194.433 618.836 194.465L624.109 194.506C625.035 194.566 625.935 194.843 626.735 195.315C627.534 195.788 628.212 196.442 628.712 197.224L649.832 234.778L649.896 234.898L670.931 235.062C674.345 235.08 683.06 237.922 683.043 241.336C683.007 244.75 674.249 247.447 670.835 247.42Z" fill="white"/>
</g>
<text transform="translate(188.551 435.673)" fill="white" xml:space="preserve" style="white-space: pre" font-family="Inter" font-size="15" font-weight="bold" letter-spacing="0em"><tspan x="0" y="14.4545">DATE</tspan></text>
<text transform="translate(514.366 435.673)" fill="white" xml:space="preserve" style="white-space: pre" font-family="Inter" font-size="15" font-weight="bold" letter-spacing="0em"><tspan x="0" y="14.4545">BOARDING</tspan></text>
<text transform="translate(188.551 469.156)" fill="white" xml:space="preserve" style="white-space: pre" font-family="Inter" font-size="20" font-weight="500" letter-spacing="0em"><tspan x="0" y="19.2727">31, JUL, 2025</tspan></text>
<text transform="translate(514.366 469.156)" fill="white" xml:space="preserve" style="white-space: pre" font-family="Inter" font-size="20" font-weight="500" letter-spacing="0em"><tspan x="0" y="19.2727">Now</tspan></text>
<text transform="translate(840.181 435.673)" fill="white" xml:space="preserve" style="white-space: pre" font-family="Inter" font-size="15" font-weight="bold" letter-spacing="0em"><tspan x="0" y="14.4545">DEPARTURE</tspan></text>
<text transform="translate(840.181 469.156)" fill="white" xml:space="preserve" style="white-space: pre" font-family="Inter" font-size="20" font-weight="500" letter-spacing="0em"><tspan x="0" y="19.2727">Undetermined</tspan></text>
<path d="M1250.99 20.9999L1250.99 631.42" stroke="white" stroke-width="2" stroke-dasharray="8 8"/>
<text transform="translate(103 84)" fill="white" xml:space="preserve" style="white-space: pre" font-family="Inter" font-size="40" font-weight="500" letter-spacing="0em"><tspan x="407.152" y="38.5455">WEB DEVELOPER</tspan></text>
<rect x="1250.99" y="64.7854" width="266.576" height="533.152" fill="white"/>
<rect x="98.3293" y="67.2854" width="1416.74" height="528.152" stroke="white" stroke-width="5"/>
<text transform="translate(1299 182.5)" fill="#4DBBFF" xml:space="preserve" style="white-space: pre" font-family="Inter" font-size="24" font-weight="bold" letter-spacing="0em"><tspan x="0" y="23.2273">Shortcut</tspan></text>
<text transform="translate(1299 244.5)" fill="#91D5FF" xml:space="preserve" style="white-space: pre" font-family="Inter" font-size="24" font-weight="500" letter-spacing="0em"><tspan x="0" y="23.2273">ABOUT ME</tspan></text>
<text transform="translate(1299 306.5)" fill="#91D5FF" xml:space="preserve" style="white-space: pre" font-family="Inter" font-size="24" font-weight="500" letter-spacing="0em"><tspan x="0" y="23.2273">SKILL</tspan></text>
<text transform="translate(1299 368.5)" fill="#91D5FF" xml:space="preserve" style="white-space: pre" font-family="Inter" font-size="24" font-weight="500" letter-spacing="0em"><tspan x="0" y="23.2273">PROJECT</tspan></text>
<text transform="translate(1299 430.5)" fill="#91D5FF" xml:space="preserve" style="white-space: pre" font-family="Inter" font-size="24" font-weight="500" letter-spacing="0em"><tspan x="0" y="23.2273">BLOG</tspan></text>
<line x1="107.556" y1="149.644" x2="1246.99" y2="149.644" stroke="white" stroke-width="8" stroke-linecap="square" stroke-dasharray="11 11"/>
<line x1="107.556" y1="149.644" x2="1246.99" y2="149.644" stroke="white" stroke-width="8" stroke-linecap="square" stroke-dasharray="11 11"/>
<line x1="107.556" y1="554.015" x2="1246.99" y2="554.015" stroke="white" stroke-width="8" stroke-linecap="square" stroke-dasharray="11 11"/>
<text transform="translate(261.956 196.142)" fill="white" xml:space="preserve" style="white-space: pre" font-family="Inter" font-size="64" font-weight="bold" letter-spacing="0em"><tspan x="0" y="61.7727">WEB</tspan></text>
<text transform="translate(844.045 196.142)" fill="white" xml:space="preserve" style="white-space: pre" font-family="Inter" font-size="64" font-weight="bold" letter-spacing="0em"><tspan x="0" y="61.7727">JUN</tspan></text>
</g>
<defs>
<filter id="filter0_d_161_98" x="0" y="-6.10352e-05" width="1607" height="661.528" filterUnits="userSpaceOnUse" color-interpolation-filters="sRGB">
<feFlood flood-opacity="0" result="BackgroundImageFix"/>
<feColorMatrix in="SourceAlpha" type="matrix" values="0 0 0 0 0 0 0 0 0 0 0 0 0 0 0 0 0 0 127 0" result="hardAlpha"/>
<feOffset dy="4"/>
<feGaussianBlur stdDeviation="12.5"/>
<feComposite in2="hardAlpha" operator="out"/>
<feColorMatrix type="matrix" values="0 0 0 0 0 0 0 0 0 0 0 0 0 0 0 0 0 0 0.25 0"/>
<feBlend mode="normal" in2="BackgroundImageFix" result="effect1_dropShadow_161_98"/>
<feBlend mode="normal" in="SourceGraphic" in2="effect1_dropShadow_161_98" result="shape"/>
</filter>
<linearGradient id="paint0_linear_161_98" x1="191.771" y1="21" x2="1153.12" y2="656.532" gradientUnits="userSpaceOnUse">
<stop stop-color="#69C6FF"/>
<stop offset="1" stop-color="#7BB4FF"/>
</linearGradient>
<clipPath id="clip0_161_98">
<rect width="123.629" height="123.629" fill="white" transform="translate(627.492 154.203) rotate(45.4469)"/>
</clipPath>
</defs>
</svg>
